<svg fill="none" height="397" viewBox="0 0 1663 397" width="1663" xmlns="http://www.w3.org/2000/svg"><g fill="#f2f2f2"><path d="m206.548 169.585c-.556-23.718 13.058-45.343 34.682-55.094 29.6-13.347 64.54-.124 77.887 29.477l15.238 12.411.787-19.637c-17.331-38.4361-62.701-55.6064-101.137-38.2754-28.077 12.6594-45.753 40.7374-45.031 71.5204l.722 32.337 7.225 16.025 10.183-23.874z"/><path d="m107.46 139.032c2.407 5.339 5.56 10.213 9.321 14.511-5.738 1.125-11.387 2.914-16.8479 5.377-38.4363 17.331-55.6066 62.701-38.2755 101.137l15.2377 12.412.7867-19.637c-13.3469-29.601-.1238-64.541 29.477-77.888 13.929-6.281 29.439-6.923 43.804-1.844l-4.244 11.213 42.371-6.199-27.649-32.7-4.256 11.246c-2.446-.879-4.917-1.63-7.407-2.253-11.713-3.279-21.295-11.514-26.294-22.6-9.275-20.57-.086-44.85 20.484-54.1248 20.569-9.2749 44.849-.0862 54.124 20.4834l16.024-7.2255c-13.259-29.4054-47.969-42.5414-77.374-29.2824s-42.5413 47.9693-29.282 77.3743z"/><path d="m162.795 298.333c28.076-12.66 45.753-40.737 45.03-71.521l-.721-32.337-17.408 7.85.555 24.89c.557 23.717-13.057 45.343-34.682 55.093-29.6 13.347-64.5399.124-77.8868-29.476l-16.0244 7.225c17.331 38.437 62.7012 55.607 101.1372 38.276z"/><path d="m289.641 221.854c-13.929 6.281-29.439 6.924-43.804 1.845l4.243-11.213-42.371 6.199 27.65 32.699 4.256-11.245c2.446.879 4.917 1.63 7.407 2.253 11.713 3.278 21.295 11.513 26.294 22.6 9.274 20.57.086 44.85-20.484 54.125-20.569 9.275-44.849.086-54.124-20.484l-16.025 7.226c13.259 29.405 47.969 42.541 77.375 29.282 29.405-13.259 42.541-47.969 29.282-77.374-2.407-5.339-5.561-10.213-9.321-14.511 5.738-1.125 11.386-2.915 16.848-5.377 38.436-17.331 55.606-62.701 38.275-101.137l-16.024 7.225c13.346 29.601.123 64.541-29.477 77.887z"/><path d="m517.32 233.008h-80.896l-20.992 52.992h-13.568l67.584-168.96h15.104l67.584 168.96h-13.568zm-4.608-11.776-29.44-73.728-6.144-17.92h-.256l-6.144 17.408-29.44 74.24zm108.05 67.328c-12.971 0-24.235-2.56-33.792-7.68s-16.128-12.544-19.712-22.272l10.496-6.912c2.56 8.533 7.765 14.933 15.616 19.2s17.493 6.4 28.928 6.4c11.605 0 20.651-2.219 27.136-6.656 6.656-4.437 9.984-10.325 9.984-17.664 0-6.315-2.816-11.349-8.448-15.104s-15.531-6.912-29.696-9.472c-17.92-3.243-30.549-7.595-37.888-13.056s-11.008-13.227-11.008-23.296c0-6.656 2.048-12.8 6.144-18.432s9.899-10.069 17.408-13.312 16.043-4.864 25.6-4.864c13.483 0 24.235 2.56 32.256 7.68 8.192 5.12 13.824 12.971 16.896 23.552l-11.008 6.4c-4.779-17.579-17.493-26.368-38.144-26.368-6.827 0-13.056 1.109-18.688 3.328-5.461 2.219-9.813 5.205-13.056 8.96-3.072 3.584-4.608 7.509-4.608 11.776 0 6.997 2.901 12.459 8.704 16.384s16.043 7.168 30.72 9.728c17.408 2.901 29.696 7.083 36.864 12.544s10.752 13.141 10.752 23.04c0 10.923-4.693 19.712-14.08 26.368-9.216 6.485-21.675 9.728-37.376 9.728zm122.732 20.992c-4.779 11.605-10.069 19.712-15.872 24.32-5.803 4.779-13.141 7.168-22.016 7.168-10.581 0-18.688-3.157-24.32-9.472l4.864-11.008c4.096 6.144 10.581 9.216 19.456 9.216 5.973 0 11.008-1.707 15.104-5.12 4.267-3.243 8.192-9.301 11.776-18.176l8.192-20.48-13.312-31.744-40.704-96.256h14.592l39.168 97.024 6.4 17.152 6.912-18.432 37.632-95.744h13.824zm149.444-154.112c14.677 0 26.453 4.096 35.328 12.288 9.045 8.192 13.568 19.968 13.568 35.328v82.944h-12.8v-78.848c0-13.653-3.328-23.808-9.984-30.464s-15.787-9.984-27.392-9.984c-8.192 0-15.787 1.877-22.784 5.632s-12.629 9.216-16.896 16.384c-4.096 7.168-6.144 15.531-6.144 25.088v72.192h-12.8v-128h11.52l.512 25.856c4.096-9.216 10.325-16.213 18.688-20.992 8.533-4.949 18.261-7.424 29.184-7.424zm203.692 2.56v181.76h-12.8v-80.896c-3.93 9.216-9.99 16.469-18.18 21.76s-17.83 7.936-28.93 7.936c-18.09 0-32.42-5.888-43.006-17.664-10.411-11.776-15.616-28.075-15.616-48.896s5.205-37.12 15.616-48.896c10.586-11.776 24.916-17.664 43.006-17.664 11.44 0 21.34 2.816 29.7 8.448 8.36 5.461 14.33 13.056 17.92 22.784l.77-28.672zm-58.37 119.296c13.31 0 23.98-4.437 32-13.312 8.19-9.045 12.71-21.248 13.57-36.608v-10.752c-.69-15.36-5.12-27.477-13.32-36.352-8.19-9.045-18.94-13.568-32.25-13.568-14.85 0-26.46 4.949-34.82 14.848-8.361 9.728-12.542 23.211-12.542 40.448s4.181 30.805 12.542 40.704c8.36 9.728 19.97 14.592 34.82 14.592zm259.93-122.368c14.5 0 26.11 4.096 34.81 12.288 8.71 8.192 13.06 19.712 13.06 34.56v83.712h-7.17v-82.944c0-13.141-3.75-23.296-11.26-30.464s-17.67-10.752-30.47-10.752c-9.21 0-17.66 2.219-25.34 6.656-7.51 4.267-13.48 10.155-17.92 17.664-4.27 7.339-6.4 15.36-6.4 24.064v76.288h-7.17v-82.944c0-13.141-3.75-23.296-11.26-30.464-7.51-7.339-17.67-11.008-30.47-11.008-9.04 0-17.4 2.219-25.08 6.656-7.51 4.267-13.49 10.155-17.92 17.664-4.44 7.339-6.66 15.531-6.66 24.576v75.52h-7.17v-128h6.66l.25 30.464c3.59-10.069 9.99-18.091 19.2-24.064 9.22-5.973 19.8-8.96 31.75-8.96 12.29 0 22.53 2.987 30.72 8.96 8.36 5.973 13.65 14.507 15.87 25.6 3.07-10.411 9.39-18.859 18.94-25.344 9.56-6.485 20.57-9.728 33.03-9.728zm142.29.512c18.61 0 33.2 5.888 43.78 17.664 10.75 11.776 16.13 28.075 16.13 48.896s-5.38 37.12-16.13 48.896c-10.58 11.776-25.17 17.664-43.78 17.664-18.77 0-33.53-5.888-44.28-17.664-10.76-11.947-16.13-28.245-16.13-48.896s5.37-36.864 16.13-48.64c10.75-11.947 25.51-17.92 44.28-17.92zm0 6.144c-16.55 0-29.61 5.376-39.16 16.128-9.39 10.752-14.08 25.515-14.08 44.288s4.69 33.536 14.08 44.288c9.55 10.752 22.61 16.128 39.16 16.128 16.39 0 29.27-5.376 38.66-16.128s14.08-25.515 14.08-44.288-4.69-33.536-14.08-44.288-22.27-16.128-38.66-16.128zm153.9-6.144c14.85 0 26.54 4.096 35.08 12.288 8.7 8.192 13.05 19.712 13.05 34.56v83.712h-7.17v-81.92c0-13.653-3.75-24.149-11.26-31.488s-17.75-11.008-30.72-11.008c-9.22 0-17.66 2.219-25.34 6.656-7.51 4.267-13.49 10.155-17.92 17.664-4.44 7.339-6.66 15.616-6.66 24.832v75.264h-7.17v-128h6.66v30.72c3.58-10.24 9.98-18.347 19.2-24.32 9.21-5.973 19.97-8.96 32.25-8.96z"/></g></svg>